# 3D Sign Model: "QUI SI DORME"
# Generated with Python - Simple wall-mounted sign
# Format: OBJ

# Materials/Colors (comment - OBJ doesn't support materials natively without MTL)
# Blue background, White/Yellow text, Yellow moon

# === SIGN BACKBOARD (Blue rectangle) ===
v -1.0 0.0 0.0
v 1.0 0.0 0.0
v 1.0 0.6 0.0
v -1.0 0.6 0.0
v -1.0 0.0 0.05
v 1.0 0.0 0.05
v 1.0 0.6 0.05
v -1.0 0.6 0.05

# Backboard faces
f 1 2 3 4
f 5 6 7 8
f 1 2 6 5
f 2 3 7 6
f 3 4 8 7
f 4 1 5 8

# === MOUNTING BRACKET (left) ===
v -1.05 0.3 0.0
v -1.1 0.3 0.0
v -1.1 0.35 0.0
v -1.05 0.35 0.0
v -1.05 0.3 0.03
v -1.1 0.3 0.03
v -1.1 0.35 0.03
v -1.05 0.35 0.03

f 9 10 11 12
f 13 14 15 16
f 9 10 14 13
f 10 11 15 14
f 11 12 16 15
f 12 9 13 16

# === MOUNTING BRACKET (right) ===
v 1.05 0.3 0.0
v 1.1 0.3 0.0
v 1.1 0.35 0.0
v 1.05 0.35 0.0
v 1.05 0.3 0.03
v 1.1 0.3 0.03
v 1.1 0.35 0.03
v 1.05 0.35 0.03

f 17 18 19 20
f 21 22 23 24
f 17 18 22 21
f 18 19 23 22
f 19 20 24 23
f 20 17 21 24

# === CRESCENT MOON (simplified as partial sphere/disc) ===
# Moon center at (-0.6, 0.45, 0.06)
v -0.6 0.45 0.06
v -0.65 0.5 0.06
v -0.55 0.5 0.06
v -0.6 0.4 0.06
v -0.7 0.45 0.06
v -0.5 0.45 0.06
v -0.6 0.5 0.06
v -0.6 0.4 0.06
v -0.65 0.45 0.06
v -0.55 0.45 0.06

# Moon circle approximation (flat disc)
f 25 26 28
f 25 28 27
f 25 29 26
f 25 30 29
f 25 31 30
f 25 32 31
f 25 33 32
f 25 27 33

# === STARS (small pyramids) ===
# Star 1 at (-0.4, 0.5, 0.06)
v -0.4 0.5 0.06
v -0.42 0.48 0.06
v -0.38 0.48 0.06
v -0.4 0.52 0.06
v -0.4 0.5 0.1

f 34 35 36
f 34 36 37
f 34 37 38
f 34 38 35
f 35 36 37 38

# Star 2 at (-0.3, 0.48, 0.06)
v -0.3 0.48 0.06
v -0.32 0.46 0.06
v -0.28 0.46 0.06
v -0.3 0.5 0.06
v -0.3 0.48 0.1

f 39 40 41
f 39 41 42
f 39 42 43
f 39 43 40
f 40 41 42 43

# Star 3 at (-0.5, 0.52, 0.06)
v -0.5 0.52 0.06
v -0.52 0.5 0.06
v -0.48 0.5 0.06
v -0.5 0.54 0.06
v -0.5 0.52 0.1

f 44 45 46
f 44 46 47
f 44 47 48
f 44 48 45
f 45 46 47 48

# === TEXT "QUI SI DORME" (simplified as raised blocks) ===
# Letter Q (simplified cube)
v -0.9 0.25 0.06
v -0.82 0.25 0.06
v -0.82 0.35 0.06
v -0.9 0.35 0.06
v -0.9 0.25 0.08
v -0.82 0.25 0.08
v -0.82 0.35 0.08
v -0.9 0.35 0.08

f 49 50 51 52
f 53 54 55 56
f 49 50 54 53
f 50 51 55 54
f 51 52 56 55
f 52 49 53 56

# Letter U
v -0.78 0.25 0.06
v -0.7 0.25 0.06
v -0.7 0.35 0.06
v -0.78 0.35 0.06
v -0.78 0.25 0.08
v -0.7 0.25 0.08
v -0.7 0.35 0.08
v -0.78 0.35 0.08

f 57 58 59 60
f 61 62 63 64
f 57 58 62 61
f 58 59 63 62
f 59 60 64 63
f 60 57 61 64

# Letter I
v -0.66 0.25 0.06
v -0.62 0.25 0.06
v -0.62 0.35 0.06
v -0.66 0.35 0.06
v -0.66 0.25 0.08
v -0.62 0.25 0.08
v -0.62 0.35 0.08
v -0.66 0.35 0.08

f 65 66 67 68
f 69 70 71 72
f 65 66 70 69
f 66 67 71 70
f 67 68 72 71
f 68 65 69 72

# Space

# Letter S
v -0.56 0.25 0.06
v -0.48 0.25 0.06
v -0.48 0.35 0.06
v -0.56 0.35 0.06
v -0.56 0.25 0.08
v -0.48 0.25 0.08
v -0.48 0.35 0.08
v -0.56 0.35 0.08

f 73 74 75 76
f 77 78 79 80
f 73 74 78 77
f 74 75 79 78
f 75 76 80 79
f 76 73 77 80

# Letter I
v -0.44 0.25 0.06
v -0.4 0.25 0.06
v -0.4 0.35 0.06
v -0.44 0.35 0.06
v -0.44 0.25 0.08
v -0.4 0.25 0.08
v -0.4 0.35 0.08
v -0.44 0.35 0.08

f 81 82 83 84
f 85 86 87 88
f 81 82 86 85
f 82 83 87 86
f 83 84 88 87
f 84 81 85 88

# Space

# Letter D
v -0.34 0.25 0.06
v -0.26 0.25 0.06
v -0.26 0.35 0.06
v -0.34 0.35 0.06
v -0.34 0.25 0.08
v -0.26 0.25 0.08
v -0.26 0.35 0.08
v -0.34 0.35 0.08

f 89 90 91 92
f 93 94 95 96
f 89 90 94 93
f 90 91 95 94
f 91 92 96 95
f 92 89 93 96

# Letter O
v -0.22 0.25 0.06
v -0.14 0.25 0.06
v -0.14 0.35 0.06
v -0.22 0.35 0.06
v -0.22 0.25 0.08
v -0.14 0.25 0.08
v -0.14 0.35 0.08
v -0.22 0.35 0.08

f 97 98 99 100
f 101 102 103 104
f 97 98 102 101
f 98 99 103 102
f 99 100 104 103
f 100 97 101 104

# Letter R
v -0.1 0.25 0.06
v -0.02 0.25 0.06
v -0.02 0.35 0.06
v -0.1 0.35 0.06
v -0.1 0.25 0.08
v -0.02 0.25 0.08
v -0.02 0.35 0.08
v -0.1 0.35 0.08

f 105 106 107 108
f 109 110 111 112
f 105 106 110 109
f 106 107 111 110
f 107 108 112 111
f 108 105 109 112

# Letter M
v 0.02 0.25 0.06
v 0.1 0.25 0.06
v 0.1 0.35 0.06
v 0.02 0.35 0.06
v 0.02 0.25 0.08
v 0.1 0.25 0.08
v 0.1 0.35 0.08
v 0.02 0.35 0.08

f 113 114 115 116
f 117 118 119 120
f 113 114 118 117
f 114 115 119 118
f 115 116 120 119
f 116 113 117 120

# Letter E
v 0.14 0.25 0.06
v 0.22 0.25 0.06
v 0.22 0.35 0.06
v 0.14 0.35 0.06
v 0.14 0.25 0.08
v 0.22 0.25 0.08
v 0.22 0.35 0.08
v 0.14 0.35 0.08

f 121 122 123 124
f 125 126 127 128
f 121 122 126 125
f 122 123 127 126
f 123 124 128 127
f 124 121 125 128

# === DECORATIVE BORDER (thin frame around sign) ===
# Top border
v -1.02 0.58 0.02
v 1.02 0.58 0.02
v 1.02 0.6 0.02
v -1.02 0.6 0.02

f 129 130 131 132

# Bottom border
v -1.02 0.0 0.02
v 1.02 0.0 0.02
v 1.02 -0.02 0.02
v -1.02 -0.02 0.02

f 133 134 135 136

# Left border
v -1.02 0.6 0.02
v -1.0 0.6 0.02
v -1.0 0.0 0.02
v -1.02 0.0 0.02

f 137 138 139 140

# Right border
v 1.0 0.6 0.02
v 1.02 0.6 0.02
v 1.02 0.0 0.02
v 1.0 0.0 0.02

f 141 142 143 144

# End of model
